<?xml version="1.0" encoding="UTF-8" standalone="no" ?>
<!DOCTYPE svg PUBLIC "-//W3C//DTD SVG 1.1//EN" "http://www.w3.org/Graphics/SVG/1.1/DTD/svg11.dtd">
<svg xmlns="http://www.w3.org/2000/svg" xmlns:xlink="http://www.w3.org/1999/xlink" version="1.1" width="32" height="32" viewBox="0 0 32 32" xml:space="preserve">
<desc>Created with Fabric.js 5.2.4</desc>
<defs>
</defs>
<g transform="matrix(1 0 0 1 16 16)" id="93b7eac8-b9fc-4062-ab46-fecd3c04a482"  >
<rect style="stroke: none; stroke-width: 1; stroke-dasharray: none; stroke-linecap: butt; stroke-dashoffset: 0; stroke-linejoin: miter; stroke-miterlimit: 4; fill: rgb(255,255,255); fill-rule: nonzero; opacity: 1; visibility: hidden;" vector-effect="non-scaling-stroke"  x="-16" y="-16" rx="0" ry="0" width="32" height="32" />
</g>
<g transform="matrix(Infinity NaN NaN Infinity 0 0)" id="a1798c5e-d369-4c15-8266-2b7a51781b6c"  >
</g>
<g transform="matrix(0.58 0 0 0.58 16 16)"  >
<g style="" vector-effect="non-scaling-stroke"   >
		<g transform="matrix(0.49 0 0 0.49 -8.76 -4.9)"  >
<path style="stroke: none; stroke-width: 1; stroke-dasharray: none; stroke-linecap: butt; stroke-dashoffset: 0; stroke-linejoin: miter; stroke-miterlimit: 4; fill: rgb(0,0,0); fill-rule: nonzero; opacity: 1;" vector-effect="non-scaling-stroke"  transform=" translate(-159.5, -141.96)" d="M 164.046875 143.589844 C 163.449219 143.109375 162.789062 142.820312 162.054688 142.675781 C 161.691406 142.605469 161.316406 142.589844 160.960938 142.59375 C 160.578125 142.613281 160.195312 142.660156 159.796875 142.75 C 158.996094 142.921875 158.15625 143.246094 157.28125 143.625 C 156.398438 144.019531 155.546875 144.445312 154.640625 144.90625 L 154.574219 144.933594 C 153.941406 145.253906 153.171875 145.003906 152.851562 144.371094 C 152.636719 143.949219 152.679688 143.464844 152.914062 143.09375 C 153.585938 142.054688 154.5 141.203125 155.503906 140.523438 C 156.511719 139.828125 157.683594 139.273438 159.011719 139.003906 C 159.671875 138.871094 160.371094 138.816406 161.074219 138.859375 C 161.800781 138.910156 162.511719 139.070312 163.171875 139.355469 C 164.484375 139.886719 165.703125 140.945312 166.210938 142.34375 C 166.445312 143 166.105469 143.71875 165.449219 143.953125 C 165.019531 144.109375 164.566406 144.015625 164.234375 143.75 Z M 164.046875 143.589844" stroke-linecap="round" />
</g>
		<g transform="matrix(0.49 0 0 0.49 4.95 -4.28)"  >
<path style="stroke: none; stroke-width: 1; stroke-dasharray: none; stroke-linecap: butt; stroke-dashoffset: 0; stroke-linejoin: miter; stroke-miterlimit: 4; fill: rgb(0,0,0); fill-rule: nonzero; opacity: 1;" vector-effect="non-scaling-stroke"  transform=" translate(-187.48, -143.21)" d="M 180.136719 141.101562 C 181.261719 140.03125 182.796875 139.441406 184.308594 139.28125 C 185.828125 139.109375 187.363281 139.324219 188.78125 139.859375 C 190.175781 140.386719 191.40625 141.199219 192.449219 142.128906 C 193.496094 143.066406 194.371094 144.125 195.050781 145.28125 C 195.40625 145.886719 195.203125 146.671875 194.601562 147.023438 C 194.148438 147.289062 193.605469 147.246094 193.203125 146.960938 L 193.183594 146.945312 C 192.183594 146.21875 191.253906 145.496094 190.308594 144.878906 C 189.363281 144.261719 188.410156 143.75 187.441406 143.378906 C 186.496094 143.023438 185.484375 142.800781 184.484375 142.761719 C 183.480469 142.71875 182.5 142.851562 181.515625 143.183594 L 181.414062 143.21875 C 180.753906 143.445312 180.035156 143.089844 179.804688 142.429688 C 179.644531 141.945312 179.789062 141.429688 180.136719 141.101562 Z M 180.136719 141.101562" stroke-linecap="round" />
</g>
		<g transform="matrix(0.49 0 0 0.49 0 -4.7)"  >
<path style="stroke: none; stroke-width: 1; stroke-dasharray: none; stroke-linecap: butt; stroke-dashoffset: 0; stroke-linejoin: miter; stroke-miterlimit: 4; fill: rgb(0,0,0); fill-rule: nonzero; opacity: 1;" vector-effect="non-scaling-stroke"  transform=" translate(-177.38, -142.37)" d="M 223.460938 155.089844 C 222.390625 153.933594 221.128906 152.898438 219.714844 152.019531 C 219.523438 151.898438 219.316406 151.839844 219.105469 151.835938 C 219.253906 143.875 216.703125 136.785156 214.003906 129.429688 C 213.023438 126.839844 212 124.261719 210.886719 121.699219 C 209.421875 118.335938 207.714844 115.074219 205.769531 111.960938 C 204.144531 109.371094 202.378906 105.191406 198.726562 105.914062 C 197.941406 106.066406 197.238281 106.359375 196.609375 106.738281 C 195.359375 107.515625 194.554688 108.511719 193.886719 109.363281 C 192.601562 111.019531 191.378906 112.746094 190.273438 114.636719 C 189.175781 116.511719 188.300781 118.609375 187.824219 120.824219 C 187.738281 121.238281 187.675781 121.664062 187.625 122.089844 C 186.28125 121.625 184.894531 121.273438 183.488281 121.023438 C 182.570312 120.863281 181.640625 120.734375 180.699219 120.664062 C 180.234375 120.625 179.765625 120.601562 179.296875 120.574219 C 178.824219 120.570312 178.355469 120.550781 177.886719 120.566406 C 176.945312 120.558594 176.003906 120.613281 175.070312 120.703125 C 174.136719 120.804688 173.203125 120.949219 172.285156 121.140625 C 171.375 121.339844 170.421875 121.574219 169.453125 121.980469 C 169.210938 122.085938 168.964844 122.199219 168.71875 122.324219 C 162.59375 117.875 156.28125 113.679688 149.984375 109.484375 C 149.984375 109.484375 149.628906 109.25 149.628906 109.25 C 149.476562 109.15625 149.273438 109.035156 148.988281 108.910156 C 148.703125 108.796875 148.320312 108.675781 147.859375 108.660156 C 147.398438 108.644531 146.949219 108.753906 146.609375 108.894531 C 145.929688 109.191406 145.574219 109.546875 145.320312 109.78125 C 144.296875 110.761719 143.578125 111.941406 143.085938 113.09375 C 142.578125 114.261719 142.285156 115.425781 142.070312 116.558594 C 141.613281 118.851562 141.570312 121.171875 141.703125 123.421875 C 141.855469 125.675781 142.285156 127.855469 142.894531 129.949219 C 143.515625 132.039062 144.285156 134.046875 145.261719 135.964844 C 145.273438 135.988281 145.285156 136.015625 145.304688 136.039062 C 143.34375 138.898438 142.15625 142.238281 141.683594 145.65625 C 141.671875 145.648438 141.660156 145.648438 141.644531 145.648438 C 138.304688 145.386719 134.839844 145.691406 131.878906 146.503906 C 131.210938 146.691406 130.820312 147.375 131.003906 148.039062 C 131.160156 148.59375 131.660156 148.960938 132.210938 148.960938 C 132.320312 148.960938 132.429688 148.945312 132.539062 148.914062 C 135.230469 148.175781 138.390625 147.898438 141.445312 148.140625 L 141.460938 148.140625 C 141.433594 148.765625 141.433594 149.394531 141.453125 150.019531 C 138.621094 149.863281 135.738281 150.203125 133.335938 150.96875 C 132.679688 151.179688 132.316406 151.878906 132.523438 152.539062 C 132.695312 153.070312 133.183594 153.410156 133.714844 153.410156 C 133.839844 153.410156 133.96875 153.390625 134.09375 153.351562 C 136.261719 152.664062 138.871094 152.371094 141.453125 152.523438 C 141.53125 152.53125 141.601562 152.523438 141.671875 152.515625 C 141.90625 154.261719 142.335938 155.980469 142.960938 157.640625 C 144.40625 161.464844 146.871094 164.890625 150.046875 167.445312 C 153.015625 169.855469 156.625 171.515625 160.410156 172.039062 C 160.898438 175.628906 164.105469 177.714844 167.378906 178.519531 C 168.808594 178.871094 170.304688 179.035156 171.761719 178.789062 C 173.894531 178.429688 175.65625 177.046875 176.871094 175.296875 C 177.125 174.929688 177.351562 174.546875 177.546875 174.148438 C 179.554688 174.300781 181.570312 174.429688 183.59375 174.503906 C 186.484375 174.621094 189.398438 174.675781 192.324219 174.539062 C 195.25 174.40625 198.183594 174.089844 201.101562 173.539062 C 204 172.984375 207.003906 172.15625 209.769531 170.515625 C 211.144531 169.695312 212.425781 168.65625 213.5 167.46875 C 214.578125 166.28125 215.488281 164.960938 216.230469 163.574219 C 216.546875 162.976562 216.839844 162.363281 217.101562 161.746094 C 217.445312 162.054688 217.796875 162.378906 218.136719 162.726562 C 218.378906 162.96875 218.699219 163.089844 219.019531 163.089844 C 219.339844 163.089844 219.660156 162.96875 219.90625 162.726562 C 220.390625 162.234375 220.390625 161.445312 219.90625 160.953125 C 219.40625 160.453125 218.894531 159.984375 218.394531 159.558594 C 218.269531 159.449219 218.125 159.375 217.976562 159.324219 C 218.441406 157.808594 218.75 156.261719 218.925781 154.695312 C 218.929688 154.628906 218.941406 154.570312 218.945312 154.503906 C 219.945312 155.183594 220.84375 155.949219 221.628906 156.796875 C 221.875 157.058594 222.210938 157.195312 222.546875 157.195312 C 222.851562 157.195312 223.15625 157.085938 223.394531 156.859375 C 223.898438 156.386719 223.929688 155.59375 223.460938 155.089844 Z M 174.480469 170.980469 C 174.410156 171.261719 174.320312 171.53125 174.214844 171.789062 C 174.105469 172.054688 173.976562 172.308594 173.824219 172.550781 L 173.824219 172.554688 C 173.371094 173.300781 172.738281 173.921875 171.964844 174.359375 C 171.65625 174.546875 171.316406 174.675781 170.996094 174.828125 C 170.664062 174.984375 170.34375 175.175781 169.988281 175.335938 C 169.636719 175.496094 169.238281 175.609375 168.828125 175.628906 C 168.421875 175.648438 168.011719 175.585938 167.59375 175.511719 C 165.925781 175.195312 164.300781 174.359375 163.484375 173.101562 C 162.660156 171.878906 162.695312 170.054688 163.378906 168.566406 C 163.730469 167.804688 164.25 167.109375 164.875 166.488281 C 165.234375 166.515625 165.601562 166.386719 165.863281 166.101562 L 165.894531 166.066406 C 166.011719 165.941406 166.136719 165.824219 166.261719 165.71875 C 166.066406 166.230469 165.925781 166.761719 165.839844 167.300781 C 165.699219 167.375 165.558594 167.46875 165.433594 167.578125 C 164.773438 168.144531 164.503906 169.015625 164.75 169.796875 C 164.929688 170.375 165.34375 170.84375 165.914062 171.125 C 166.273438 171.304688 166.664062 171.394531 167.058594 171.394531 C 167.351562 171.394531 167.640625 171.34375 167.914062 171.25 C 168.625 170.988281 169.136719 170.441406 169.28125 169.78125 C 169.460938 168.96875 169.066406 168.121094 168.316406 167.664062 C 168.515625 166.453125 169.128906 165.304688 170.019531 164.464844 C 170.03125 164.464844 170.046875 164.46875 170.054688 164.46875 C 170.773438 164.566406 171.488281 164.820312 172.125 165.230469 C 172.753906 165.648438 173.316406 166.191406 173.738281 166.808594 C 174.175781 167.425781 174.433594 168.125 174.558594 168.804688 C 174.691406 169.503906 174.65625 170.269531 174.480469 170.980469 Z M 201.476562 151.691406 C 201.753906 152.285156 202.476562 152.511719 203.101562 152.300781 C 206.714844 151.070312 210.96875 151.113281 214.78125 152.429688 C 214.90625 152.476562 215.039062 152.496094 215.164062 152.5 C 215.144531 153.09375 215.101562 153.683594 215.039062 154.269531 C 214.945312 155.15625 214.804688 156.035156 214.609375 156.90625 C 210.824219 154.765625 206.699219 153.859375 202.660156 154.285156 C 201.96875 154.359375 201.476562 154.976562 201.546875 155.660156 C 201.621094 156.351562 202.230469 156.839844 202.921875 156.773438 C 206.535156 156.390625 210.25 157.246094 213.660156 159.238281 C 213.738281 159.289062 213.820312 159.371094 213.90625 159.394531 C 213.609375 160.234375 213.273438 161.003906 212.863281 161.785156 C 211.679688 164.078125 209.984375 166.039062 207.855469 167.371094 C 205.699219 168.71875 203.105469 169.53125 200.398438 170.105469 C 197.695312 170.699219 194.925781 171.085938 192.128906 171.289062 C 187.605469 171.675781 183.011719 171.613281 178.390625 171.519531 C 178.585938 170.375 178.570312 169.195312 178.300781 168.035156 C 178.015625 166.769531 177.433594 165.605469 176.660156 164.636719 C 175.886719 163.660156 174.933594 162.84375 173.839844 162.253906 C 172.746094 161.679688 171.503906 161.320312 170.230469 161.296875 C 168.484375 161.285156 166.828125 161.863281 165.515625 162.875 C 165.5 162.878906 165.484375 162.894531 165.46875 162.90625 C 164.65625 163.441406 163.871094 164.046875 163.15625 164.753906 C 162.363281 165.546875 161.679688 166.464844 161.160156 167.511719 C 160.871094 168.109375 160.648438 168.746094 160.511719 169.40625 C 157.421875 168.566406 154.558594 166.988281 152.15625 164.921875 C 149.5 162.621094 147.371094 159.703125 146.109375 156.441406 C 145.683594 155.34375 145.359375 154.21875 145.125 153.066406 C 145.550781 153.171875 145.976562 153.296875 146.394531 153.433594 C 146.53125 153.480469 146.664062 153.5 146.796875 153.5 C 147.363281 153.5 147.898438 153.105469 148.019531 152.496094 C 148.148438 151.855469 147.71875 151.238281 147.101562 151.035156 C 146.449219 150.820312 145.789062 150.644531 145.136719 150.511719 C 145.003906 150.484375 144.875 150.480469 144.75 150.5 C 144.683594 149.871094 144.65625 149.234375 144.65625 148.59375 C 145.425781 148.746094 146.164062 148.933594 146.859375 149.15625 C 146.988281 149.195312 147.113281 149.214844 147.238281 149.214844 C 147.769531 149.214844 148.265625 148.875 148.429688 148.34375 C 148.640625 147.683594 148.273438 146.980469 147.621094 146.773438 C 146.761719 146.5 145.851562 146.273438 144.910156 146.09375 C 144.859375 146.085938 144.808594 146.078125 144.761719 146.074219 C 144.765625 146.066406 144.765625 146.050781 144.765625 146.039062 C 144.765625 144.246094 145.421875 142.234375 146.039062 140.570312 C 146.648438 138.933594 148.035156 137.410156 148.503906 135.796875 C 148.746094 134.96875 148.246094 134.914062 147.925781 134.386719 C 147.523438 133.71875 147.453125 133.039062 147.410156 132.273438 C 147.085938 126.445312 144.46875 119.175781 147.65625 113.671875 C 147.800781 113.421875 147.859375 113.183594 147.789062 112.898438 C 147.859375 112.835938 147.945312 112.820312 148.035156 112.859375 C 148.035156 112.863281 148 113.148438 148.003906 113.164062 C 149.058594 113.78125 150.105469 114.410156 151.148438 115.039062 C 152.960938 116.128906 154.765625 117.21875 156.585938 118.285156 C 159.910156 120.246094 163.25 122.179688 166.628906 124.050781 C 166.445312 124.394531 166.425781 124.820312 166.609375 125.195312 C 166.921875 125.835938 167.753906 126.054688 168.386719 125.726562 L 168.414062 125.710938 C 169.648438 125.074219 171.140625 124.863281 172.863281 124.695312 C 174.558594 124.503906 176.253906 124.390625 177.953125 124.324219 C 178.808594 124.304688 179.660156 124.304688 180.515625 124.316406 C 181.363281 124.339844 182.21875 124.371094 183.074219 124.429688 C 184.570312 124.523438 186.058594 124.703125 187.570312 124.894531 C 187.640625 125.816406 187.808594 126.730469 188.101562 127.613281 C 188.324219 128.300781 189.113281 128.699219 189.859375 128.34375 C 190.34375 128.113281 190.605469 127.570312 190.53125 127.039062 L 190.523438 127.015625 C 190.269531 125.226562 190.480469 123.386719 191.035156 121.636719 C 191.558594 119.863281 192.460938 118.226562 193.5 116.613281 C 194.546875 115.011719 195.820312 113.476562 197.078125 111.925781 C 197.679688 111.179688 198.261719 110.613281 198.769531 110.320312 C 199.871094 109.648438 200.878906 110.160156 201.460938 111.195312 C 203.664062 115.121094 206.003906 119.011719 207.898438 123.070312 C 210.058594 127.695312 212.199219 132.519531 213.464844 137.539062 C 214.121094 140.144531 214.539062 142.804688 214.675781 145.488281 C 214.703125 146.058594 214.421875 148.039062 214.636719 149.144531 C 214.691406 149.433594 214.414062 149.683594 214.128906 149.605469 C 210.070312 148.488281 205.980469 148.65625 202.195312 149.96875 C 201.496094 150.210938 201.148438 151.011719 201.476562 151.691406 Z M 201.476562 151.691406" stroke-linecap="round" />
</g>
		<g transform="matrix(0.49 0 0 0.49 -17.96 16.93)"  >
<path style="stroke: none; stroke-width: 1; stroke-dasharray: none; stroke-linecap: butt; stroke-dashoffset: 0; stroke-linejoin: miter; stroke-miterlimit: 4; fill: rgb(0,0,0); fill-rule: nonzero; opacity: 1;" vector-effect="non-scaling-stroke"  transform=" translate(-8.17, 7.37)" d="M 3.96875 -13.09375 L 3.96875 -1.640625 L 6.375 -1.640625 C 8.414062 -1.640625 9.90625 -2.097656 10.84375 -3.015625 C 11.789062 -3.941406 12.265625 -5.394531 12.265625 -7.375 C 12.265625 -9.351562 11.789062 -10.800781 10.84375 -11.71875 C 9.90625 -12.632812 8.414062 -13.09375 6.375 -13.09375 Z M 1.984375 -14.734375 L 6.078125 -14.734375 C 8.929688 -14.734375 11.023438 -14.140625 12.359375 -12.953125 C 13.691406 -11.765625 14.359375 -9.90625 14.359375 -7.375 C 14.359375 -4.84375 13.6875 -2.976562 12.34375 -1.78125 C 11.007812 -0.59375 8.921875 0 6.078125 0 L 1.984375 0 Z M 1.984375 -14.734375" stroke-linecap="round" />
</g>
		<g transform="matrix(0.49 0 0 0.49 -11.46 17.84)"  >
<path style="stroke: none; stroke-width: 1; stroke-dasharray: none; stroke-linecap: butt; stroke-dashoffset: 0; stroke-linejoin: miter; stroke-miterlimit: 4; fill: rgb(0,0,0); fill-rule: nonzero; opacity: 1;" vector-effect="non-scaling-stroke"  transform=" translate(-5.88, 5.52)" d="M 6.921875 -5.546875 C 5.453125 -5.546875 4.4375 -5.378906 3.875 -5.046875 C 3.3125 -4.710938 3.03125 -4.140625 3.03125 -3.328125 C 3.03125 -2.691406 3.238281 -2.179688 3.65625 -1.796875 C 4.082031 -1.421875 4.660156 -1.234375 5.390625 -1.234375 C 6.398438 -1.234375 7.207031 -1.585938 7.8125 -2.296875 C 8.425781 -3.015625 8.734375 -3.96875 8.734375 -5.15625 L 8.734375 -5.546875 Z M 10.546875 -6.296875 L 10.546875 0 L 8.734375 0 L 8.734375 -1.671875 C 8.316406 -1.003906 7.796875 -0.507812 7.171875 -0.1875 C 6.554688 0.125 5.800781 0.28125 4.90625 0.28125 C 3.78125 0.28125 2.882812 -0.0351562 2.21875 -0.671875 C 1.550781 -1.304688 1.21875 -2.15625 1.21875 -3.21875 C 1.21875 -4.457031 1.628906 -5.390625 2.453125 -6.015625 C 3.285156 -6.648438 4.53125 -6.96875 6.1875 -6.96875 L 8.734375 -6.96875 L 8.734375 -7.15625 C 8.734375 -7.988281 8.457031 -8.632812 7.90625 -9.09375 C 7.351562 -9.550781 6.582031 -9.78125 5.59375 -9.78125 C 4.957031 -9.78125 4.335938 -9.703125 3.734375 -9.546875 C 3.140625 -9.398438 2.566406 -9.175781 2.015625 -8.875 L 2.015625 -10.546875 C 2.679688 -10.804688 3.328125 -11 3.953125 -11.125 C 4.578125 -11.25 5.1875 -11.3125 5.78125 -11.3125 C 7.375 -11.3125 8.566406 -10.894531 9.359375 -10.0625 C 10.148438 -9.238281 10.546875 -7.984375 10.546875 -6.296875 Z M 10.546875 -6.296875" stroke-linecap="round" />
</g>
		<g transform="matrix(0.49 0 0 0.49 -6.9 16.78)"  >
<path style="stroke: none; stroke-width: 1; stroke-dasharray: none; stroke-linecap: butt; stroke-dashoffset: 0; stroke-linejoin: miter; stroke-miterlimit: 4; fill: rgb(0,0,0); fill-rule: nonzero; opacity: 1;" vector-effect="non-scaling-stroke"  transform=" translate(-2.81, 7.67)" d="M 1.90625 -11.046875 L 3.71875 -11.046875 L 3.71875 0 L 1.90625 0 Z M 1.90625 -15.34375 L 3.71875 -15.34375 L 3.71875 -13.046875 L 1.90625 -13.046875 Z M 1.90625 -15.34375" stroke-linecap="round" />
</g>
		<g transform="matrix(0.49 0 0 0.49 -4.15 16.78)"  >
<path style="stroke: none; stroke-width: 1; stroke-dasharray: none; stroke-linecap: butt; stroke-dashoffset: 0; stroke-linejoin: miter; stroke-miterlimit: 4; fill: rgb(0,0,0); fill-rule: nonzero; opacity: 1;" vector-effect="non-scaling-stroke"  transform=" translate(-2.81, 7.67)" d="M 1.90625 -15.34375 L 3.71875 -15.34375 L 3.71875 0 L 1.90625 0 Z M 1.90625 -15.34375" stroke-linecap="round" />
</g>
		<g transform="matrix(0.49 0 0 0.49 0.16 18.86)"  >
<path style="stroke: none; stroke-width: 1; stroke-dasharray: none; stroke-linecap: butt; stroke-dashoffset: 0; stroke-linejoin: miter; stroke-miterlimit: 4; fill: rgb(0,0,0); fill-rule: nonzero; opacity: 1;" vector-effect="non-scaling-stroke"  transform=" translate(-5.98, 3.42)" d="M 6.5 1.03125 C 5.988281 2.34375 5.488281 3.195312 5 3.59375 C 4.507812 4 3.859375 4.203125 3.046875 4.203125 L 1.59375 4.203125 L 1.59375 2.6875 L 2.65625 2.6875 C 3.15625 2.6875 3.539062 2.566406 3.8125 2.328125 C 4.09375 2.085938 4.40625 1.53125 4.75 0.65625 L 5.078125 -0.171875 L 0.609375 -11.046875 L 2.53125 -11.046875 L 5.984375 -2.40625 L 9.4375 -11.046875 L 11.359375 -11.046875 Z M 6.5 1.03125" stroke-linecap="round" />
</g>
		<g transform="matrix(0.49 0 0 0.49 6.55 16.93)"  >
<path style="stroke: none; stroke-width: 1; stroke-dasharray: none; stroke-linecap: butt; stroke-dashoffset: 0; stroke-linejoin: miter; stroke-miterlimit: 4; fill: rgb(0,0,0); fill-rule: nonzero; opacity: 1;" vector-effect="non-scaling-stroke"  transform=" translate(-7.08, 7.36)" d="M 13.015625 -13.59375 L 13.015625 -11.5 C 12.335938 -12.113281 11.617188 -12.578125 10.859375 -12.890625 C 10.109375 -13.203125 9.300781 -13.359375 8.4375 -13.359375 C 6.757812 -13.359375 5.472656 -12.84375 4.578125 -11.8125 C 3.679688 -10.78125 3.234375 -9.289062 3.234375 -7.34375 C 3.234375 -5.40625 3.679688 -3.921875 4.578125 -2.890625 C 5.472656 -1.859375 6.757812 -1.34375 8.4375 -1.34375 C 9.300781 -1.34375 10.109375 -1.5 10.859375 -1.8125 C 11.617188 -2.125 12.335938 -2.59375 13.015625 -3.21875 L 13.015625 -1.140625 C 12.316406 -0.660156 11.578125 -0.300781 10.796875 -0.0625 C 10.015625 0.164062 9.191406 0.28125 8.328125 0.28125 C 6.097656 0.28125 4.34375 -0.398438 3.0625 -1.765625 C 1.78125 -3.128906 1.140625 -4.988281 1.140625 -7.34375 C 1.140625 -9.71875 1.78125 -11.585938 3.0625 -12.953125 C 4.34375 -14.316406 6.097656 -15 8.328125 -15 C 9.203125 -15 10.03125 -14.878906 10.8125 -14.640625 C 11.59375 -14.410156 12.328125 -14.0625 13.015625 -13.59375 Z M 13.015625 -13.59375" stroke-linecap="round" />
</g>
		<g transform="matrix(0.49 0 0 0.49 12.88 17.84)"  >
<path style="stroke: none; stroke-width: 1; stroke-dasharray: none; stroke-linecap: butt; stroke-dashoffset: 0; stroke-linejoin: miter; stroke-miterlimit: 4; fill: rgb(0,0,0); fill-rule: nonzero; opacity: 1;" vector-effect="non-scaling-stroke"  transform=" translate(-5.88, 5.52)" d="M 6.921875 -5.546875 C 5.453125 -5.546875 4.4375 -5.378906 3.875 -5.046875 C 3.3125 -4.710938 3.03125 -4.140625 3.03125 -3.328125 C 3.03125 -2.691406 3.238281 -2.179688 3.65625 -1.796875 C 4.082031 -1.421875 4.660156 -1.234375 5.390625 -1.234375 C 6.398438 -1.234375 7.207031 -1.585938 7.8125 -2.296875 C 8.425781 -3.015625 8.734375 -3.96875 8.734375 -5.15625 L 8.734375 -5.546875 Z M 10.546875 -6.296875 L 10.546875 0 L 8.734375 0 L 8.734375 -1.671875 C 8.316406 -1.003906 7.796875 -0.507812 7.171875 -0.1875 C 6.554688 0.125 5.800781 0.28125 4.90625 0.28125 C 3.78125 0.28125 2.882812 -0.0351562 2.21875 -0.671875 C 1.550781 -1.304688 1.21875 -2.15625 1.21875 -3.21875 C 1.21875 -4.457031 1.628906 -5.390625 2.453125 -6.015625 C 3.285156 -6.648438 4.53125 -6.96875 6.1875 -6.96875 L 8.734375 -6.96875 L 8.734375 -7.15625 C 8.734375 -7.988281 8.457031 -8.632812 7.90625 -9.09375 C 7.351562 -9.550781 6.582031 -9.78125 5.59375 -9.78125 C 4.957031 -9.78125 4.335938 -9.703125 3.734375 -9.546875 C 3.140625 -9.398438 2.566406 -9.175781 2.015625 -8.875 L 2.015625 -10.546875 C 2.679688 -10.804688 3.328125 -11 3.953125 -11.125 C 4.578125 -11.25 5.1875 -11.3125 5.78125 -11.3125 C 7.375 -11.3125 8.566406 -10.894531 9.359375 -10.0625 C 10.148438 -9.238281 10.546875 -7.984375 10.546875 -6.296875 Z M 10.546875 -6.296875" stroke-linecap="round" />
</g>
		<g transform="matrix(0.49 0 0 0.49 18.02 17.06)"  >
<path style="stroke: none; stroke-width: 1; stroke-dasharray: none; stroke-linecap: butt; stroke-dashoffset: 0; stroke-linejoin: miter; stroke-miterlimit: 4; fill: rgb(0,0,0); fill-rule: nonzero; opacity: 1;" vector-effect="non-scaling-stroke"  transform=" translate(-3.99, 7.09)" d="M 3.703125 -14.1875 L 3.703125 -11.046875 L 7.4375 -11.046875 L 7.4375 -9.640625 L 3.703125 -9.640625 L 3.703125 -3.640625 C 3.703125 -2.734375 3.820312 -2.148438 4.0625 -1.890625 C 4.3125 -1.640625 4.816406 -1.515625 5.578125 -1.515625 L 7.4375 -1.515625 L 7.4375 0 L 5.578125 0 C 4.171875 0 3.203125 -0.257812 2.671875 -0.78125 C 2.140625 -1.300781 1.875 -2.253906 1.875 -3.640625 L 1.875 -9.640625 L 0.546875 -9.640625 L 0.546875 -11.046875 L 1.875 -11.046875 L 1.875 -14.1875 Z M 3.703125 -14.1875" stroke-linecap="round" />
</g>
		<g transform="matrix(0.49 0 0 0.49 -1.64 9.9)"  >
<path style="stroke: none; stroke-width: 1; stroke-dasharray: none; stroke-linecap: butt; stroke-dashoffset: 0; stroke-linejoin: miter; stroke-miterlimit: 4; fill: rgb(0,0,0); fill-rule: nonzero; opacity: 1;" vector-effect="non-scaling-stroke"  transform=" translate(-174.02, -172.17)" d="M 174.214844 171.789062 C 174.105469 172.054688 173.976562 172.308594 173.824219 172.550781 C 173.859375 172.246094 174.003906 171.984375 174.214844 171.789062 Z M 174.214844 171.789062" stroke-linecap="round" />
</g>
		<g transform="matrix(0.49 0 0 0.49 -14.45 -19.13)"  >
<path style="stroke: none; stroke-width: 1; stroke-dasharray: none; stroke-linecap: butt; stroke-dashoffset: 0; stroke-linejoin: miter; stroke-miterlimit: 4; fill: rgb(0,0,0); fill-rule: nonzero; opacity: 1;" vector-effect="non-scaling-stroke"  transform=" translate(-147.88, -112.92)" d="M 148.355469 112.710938 C 148.339844 112.71875 148.304688 112.75 148.261719 112.804688 C 148.160156 112.90625 148.066406 113.011719 147.980469 113.121094 L 147.765625 112.988281 L 147.449219 112.800781 C 147.429688 112.789062 147.410156 112.78125 147.394531 112.769531 C 147.433594 112.789062 147.558594 112.839844 147.753906 112.84375 C 147.953125 112.855469 148.140625 112.804688 148.234375 112.765625 C 148.300781 112.734375 148.339844 112.714844 148.355469 112.710938 Z M 148.355469 112.710938" stroke-linecap="round" />
</g>
		<g transform="matrix(0.49 0 0 0.49 -11.24 -13.11)"  >
<path style="stroke: none; stroke-width: 1; stroke-dasharray: none; stroke-linecap: butt; stroke-dashoffset: 0; stroke-linejoin: miter; stroke-miterlimit: 4; fill: rgb(0,0,0); fill-rule: nonzero; opacity: 1;" vector-effect="non-scaling-stroke"  transform=" translate(-154.43, -125.2)" d="M 151.730469 132.648438 C 151.183594 132.648438 150.683594 132.289062 150.53125 131.746094 C 150.519531 131.714844 150.515625 131.683594 150.511719 131.660156 C 150.480469 131.589844 150.460938 131.515625 150.441406 131.441406 L 148.835938 123.714844 C 148.566406 122.410156 148.058594 119.984375 149.476562 118.226562 C 149.878906 117.71875 150.601562 117.609375 151.140625 117.964844 C 154.375 120.105469 157.28125 122.695312 159.773438 125.664062 C 159.953125 125.875 160.496094 126.523438 160.28125 127.386719 C 160.15625 127.894531 159.816406 128.210938 159.671875 128.34375 C 157.515625 130.328125 154.890625 131.804688 152.074219 132.605469 C 151.960938 132.636719 151.84375 132.648438 151.730469 132.648438 Z M 151.035156 120.925781 C 150.980469 121.621094 151.125 122.441406 151.285156 123.199219 L 152.648438 129.78125 C 154.429688 129.109375 156.09375 128.125 157.539062 126.890625 C 155.609375 124.648438 153.425781 122.648438 151.035156 120.925781 Z M 151.035156 120.925781" stroke-linecap="round" />
</g>
		<g transform="matrix(0.49 0 0 0.49 11.59 -12.95)"  >
<path style="stroke: none; stroke-width: 1; stroke-dasharray: none; stroke-linecap: butt; stroke-dashoffset: 0; stroke-linejoin: miter; stroke-miterlimit: 4; fill: rgb(0,0,0); fill-rule: nonzero; opacity: 1;" vector-effect="non-scaling-stroke"  transform=" translate(-201.03, -125.52)" d="M 206.738281 135.515625 C 206.246094 135.515625 205.835938 135.324219 205.636719 135.234375 C 202.726562 133.890625 199.910156 132.285156 197.265625 130.46875 C 195.695312 129.390625 194.039062 128.011719 193.664062 125.953125 C 193.53125 125.730469 193.464844 125.464844 193.496094 125.183594 C 193.785156 122.335938 194.691406 119.519531 196.109375 117.035156 C 196.320312 116.671875 196.953125 115.558594 198.210938 115.523438 C 198.910156 115.5 199.433594 115.851562 199.78125 116.105469 C 201.34375 117.289062 202.261719 119.074219 202.988281 120.511719 C 204.585938 123.628906 206.234375 126.855469 207.675781 130.136719 C 208.125 131.160156 208.53125 132.171875 208.570312 133.320312 C 208.601562 134.238281 208.234375 134.964844 207.558594 135.316406 C 207.28125 135.460938 207 135.515625 206.738281 135.515625 Z M 196.015625 125.15625 C 196.066406 125.261719 196.105469 125.375 196.125 125.496094 C 196.328125 126.648438 197.476562 127.574219 198.679688 128.40625 C 200.984375 129.984375 203.425781 131.398438 205.949219 132.613281 C 205.824219 132.148438 205.621094 131.660156 205.390625 131.140625 C 203.980469 127.925781 202.34375 124.734375 200.765625 121.648438 C 200.128906 120.410156 199.414062 119.011719 198.351562 118.164062 C 198.328125 118.199219 198.304688 118.234375 198.28125 118.28125 C 197.078125 120.375 196.296875 122.75 196.015625 125.15625 Z M 196.015625 125.15625" stroke-linecap="round" />
</g>
		<g transform="matrix(0.49 0 0 0.49 -3.09 -0.29)"  >
<path style="stroke: none; stroke-width: 1; stroke-dasharray: none; stroke-linecap: butt; stroke-dashoffset: 0; stroke-linejoin: miter; stroke-miterlimit: 4; fill: rgb(0,0,0); fill-rule: nonzero; opacity: 1;" vector-effect="non-scaling-stroke"  transform=" translate(-171.06, -151.38)" d="M 182.386719 147.933594 C 181.699219 147.824219 181.058594 148.296875 180.953125 148.980469 C 180.839844 149.714844 180.210938 150.460938 179.371094 150.871094 C 178.558594 151.273438 177.511719 151.371094 176.464844 151.21875 C 175.941406 151.148438 175.40625 151.023438 174.871094 150.863281 C 174.351562 150.710938 173.851562 150.511719 173.40625 150.265625 C 172.839844 149.96875 172.378906 149.589844 172.078125 149.175781 C 172.414062 148.480469 172.464844 147.769531 172.503906 147.191406 C 172.53125 146.820312 172.390625 146.453125 172.125 146.199219 C 171.933594 146.019531 171.695312 145.90625 171.441406 145.863281 C 171.191406 145.59375 170.824219 145.445312 170.433594 145.480469 C 170.40625 145.476562 170.375 145.480469 170.34375 145.484375 C 170.136719 145.515625 169.945312 145.601562 169.785156 145.714844 C 169.671875 145.675781 169.558594 145.628906 169.449219 145.578125 C 169.023438 145.714844 168.554688 145.703125 168.136719 145.554688 C 167.75 145.414062 167.316406 145.480469 166.980469 145.71875 C 166.855469 145.808594 166.746094 145.925781 166.664062 146.050781 C 166.421875 146.75 166.503906 147.554688 166.898438 148.238281 C 167.015625 148.441406 167.15625 148.625 167.308594 148.785156 C 167.355469 148.894531 167.398438 149.003906 167.460938 149.125 C 167.460938 149.125 167.460938 149.125 167.460938 149.128906 C 167.449219 149.148438 167.445312 149.171875 167.441406 149.191406 C 167.105469 150.523438 165.929688 151.625 164.574219 151.863281 C 163.21875 152.101562 161.734375 151.476562 160.964844 150.335938 C 160.574219 149.765625 159.800781 149.613281 159.230469 150 C 158.65625 150.386719 158.503906 151.164062 158.894531 151.734375 C 160.023438 153.410156 161.984375 154.414062 163.984375 154.414062 C 164.324219 154.414062 164.671875 154.386719 165.011719 154.324219 C 165.246094 154.285156 165.46875 154.230469 165.695312 154.15625 C 165.960938 154.441406 166.226562 154.734375 166.515625 155.023438 C 166.875 155.398438 167.269531 155.769531 167.714844 156.105469 C 168.164062 156.433594 168.660156 156.753906 169.234375 156.96875 C 169.804688 157.199219 170.453125 157.308594 171.089844 157.269531 C 171.726562 157.238281 172.351562 157.050781 172.886719 156.78125 C 173.429688 156.503906 173.890625 156.15625 174.304688 155.789062 C 175.09375 155.078125 175.710938 154.285156 176.304688 153.535156 C 177.609375 153.675781 179.039062 153.609375 180.378906 152.976562 C 181.054688 152.65625 181.691406 152.21875 182.21875 151.644531 C 182.75 151.074219 183.183594 150.351562 183.390625 149.535156 L 183.40625 149.480469 C 183.414062 149.441406 183.425781 149.40625 183.429688 149.363281 C 183.535156 148.679688 183.070312 148.039062 182.386719 147.933594 Z M 172.800781 154.199219 C 172.238281 154.789062 171.605469 155.148438 170.96875 155.183594 C 170.335938 155.226562 169.683594 154.945312 169.085938 154.410156 C 168.640625 154.019531 168.230469 153.53125 167.851562 152.984375 C 168.570312 152.378906 169.160156 151.609375 169.535156 150.738281 C 169.628906 150.535156 169.710938 150.324219 169.769531 150.109375 C 169.746094 150.066406 169.71875 150.019531 169.695312 149.976562 C 169.734375 149.96875 169.773438 149.964844 169.816406 149.960938 C 169.804688 150.011719 169.789062 150.058594 169.769531 150.109375 C 169.894531 150.324219 170.035156 150.523438 170.183594 150.710938 C 170.289062 150.839844 170.398438 150.960938 170.515625 151.074219 C 171.058594 151.636719 171.675781 152.039062 172.300781 152.363281 C 172.78125 152.609375 173.269531 152.800781 173.761719 152.964844 C 173.46875 153.425781 173.148438 153.84375 172.800781 154.199219 Z M 172.800781 154.199219" stroke-linecap="round" />
</g>
</g>
</g>
</svg>